<!-- <svg id="logo-15" width="49" height="48" viewBox="0 0 49 48" fill="none" xmlns="http://www.w3.org/2000/svg"> <path d="M24.5 12.75C24.5 18.9632 19.4632 24 13.25 24H2V12.75C2 6.53679 7.03679 1.5 13.25 1.5C19.4632 1.5 24.5 6.53679 24.5 12.75Z" class="ccustom" fill="#fdc791"></path> <path d="M24.5 35.25C24.5 29.0368 29.5368 24 35.75 24H47V35.25C47 41.4632 41.9632 46.5 35.75 46.5C29.5368 46.5 24.5 41.4632 24.5 35.25Z" class="ccustom" fill="#fdc791"></path> <path d="M2 35.25C2 41.4632 7.03679 46.5 13.25 46.5H24.5V35.25C24.5 29.0368 19.4632 24 13.25 24C7.03679 24 2 29.0368 2 35.25Z" class="ccustom" fill="#FFE0C2"></path> <path d="M47 12.75C47 6.53679 41.9632 1.5 35.75 1.5H24.5V12.75C24.5 18.9632 29.5368 24 35.75 24C41.9632 24 47 18.9632 47 12.75Z" class="ccustom" fill="#FFE0C2"></path> </svg> -->

<svg data-logo="logo" xmlns="http://www.w3.org/2000/svg" viewBox="0 0 48 43">
        <g id="logogram" transform="translate(0, 1) rotate(0)"><path d="M20.9053 0.809967C9.85957 0.809967 0.905273 9.76427 0.905273 20.81C11.951 20.81 20.9053 11.8557 20.9053 0.809967Z" fill="#FFE0C2"></path><path d="M20.9053 40.81C31.951 40.81 40.9053 31.8557 40.9053 20.81C29.8596 20.81 20.9053 29.7643 20.9053 40.81Z" fill="#FFE0C2"></path><path d="M20.9053 0.809967C31.951 0.809967 40.9053 9.76427 40.9053 20.81C29.8596 20.81 20.9053 11.8557 20.9053 0.809967Z" fill="#FDC791"></path><path d="M20.9053 40.81C9.85957 40.81 0.905272 31.8557 0.905273 20.81C11.951 20.81 20.9053 29.7643 20.9053 40.81Z" fill="#FDC791"></path></g>
        <g id="logotype" transform="translate(47, 21.5)"><path fill="#111111" d=""></path></g>

      </svg>
